<?xml version="1.0" encoding="utf-8"?><!DOCTYPE svg PUBLIC "-//W3C//DTD SVG 1.1//EN" "http://www.w3.org/Graphics/SVG/1.1/DTD/svg11.dtd"><svg version="1.1" id="Livello_1" xmlns="http://www.w3.org/2000/svg" xmlns:xlink="http://www.w3.org/1999/xlink" x="0px" y="0px" viewBox="0 0 70.563 50.25" enable-background="new 0 0 70.563 50.25" xml:space="preserve"><path fill-rule="evenodd" clip-rule="evenodd" fill="#1A171B" d="M60.338,38.644c7.324-8.26,7.324-20.73,0-28.997c-0.498-0.561-0.471-1.415,0.063-1.94l1.34-1.341c0.283-0.289,0.639-0.424,1.043-0.417c0.406,0.013,0.748,0.168,1.02,0.479c9.014,10.071,9.014,25.372,0,35.444c-0.271,0.303-0.613,0.465-1.02,0.479c-0.404,0.006-0.76-0.136-1.043-0.419l-1.34-1.34C59.867,40.059,59.84,39.209,60.338,38.644"/><path fill-rule="evenodd" clip-rule="evenodd" fill="#1A171B" d="M54.416,32.782c-0.471,0.565-0.43,1.388,0.088,1.914l1.342,1.333c0.289,0.297,0.652,0.438,1.064,0.418c0.41-0.014,0.76-0.188,1.023-0.498c5.754-6.799,5.754-16.803,0-23.607c-0.264-0.31-0.613-0.485-1.023-0.499c-0.412-0.014-0.775,0.121-1.064,0.418l-1.342,1.334c-0.518,0.525-0.559,1.348-0.088,1.913C58.553,20.507,58.553,27.783,54.416,32.782"/><path fill-rule="evenodd" clip-rule="evenodd" fill="#1A171B" d="M13.198,38.644c-7.323-8.26-7.323-20.73,0-28.997c0.499-0.561,0.472-1.415-0.06-1.94l-1.333-1.341c-0.283-0.289-0.642-0.424-1.046-0.417c-0.403,0.013-0.755,0.168-1.023,0.479c-9.014,10.071-9.014,25.372,0,35.444c0.269,0.303,0.62,0.465,1.023,0.479c0.404,0.006,0.763-0.136,1.046-0.419l1.333-1.34C13.669,40.059,13.697,39.209,13.198,38.644"/><path fill-rule="evenodd" clip-rule="evenodd" fill="#1A171B" d="M19.126,32.782c0.473,0.565,0.433,1.388-0.087,1.914l-1.341,1.333c-0.296,0.297-0.654,0.438-1.064,0.418c-0.41-0.014-0.762-0.188-1.03-0.498c-5.747-6.799-5.747-16.803,0-23.607c0.269-0.31,0.62-0.485,1.03-0.499s0.769,0.121,1.064,0.418l1.341,1.334c0.52,0.525,0.56,1.348,0.087,1.913C14.991,20.507,14.991,27.783,19.126,32.782"/><path fill-rule="evenodd" clip-rule="evenodd" fill="#1A171B" d="M48.238,49.221H25.595c-1.84,0-3.342-1.51-3.342-3.341V4.271c0-1.847,1.502-3.342,3.342-3.342h22.643c1.84,0,3.342,1.495,3.342,3.342V45.88C51.58,47.711,50.078,49.221,48.238,49.221"/><path fill-rule="evenodd" clip-rule="evenodd" fill="#FFFFFF" stroke="#1A171B" d="M26.323,5.173h21.181c0.938,0,1.699,0.755,1.699,1.685v33.538c0,0.93-0.762,1.69-1.699,1.69H26.323c-0.93,0-1.691-0.761-1.691-1.69V6.857C24.631,5.928,25.393,5.173,26.323,5.173"/><rect x="28.021" y="8.555" fill-rule="evenodd" clip-rule="evenodd" fill="#1A171B" width="17.793" height="30.143"/><path fill-rule="evenodd" clip-rule="evenodd" fill="#FFFFFF" d="M38.133,43.898c-0.311-0.31-0.74-0.498-1.22-0.498c-0.471,0-0.9,0.188-1.212,0.498c-0.31,0.316-0.506,0.741-0.506,1.22s0.196,0.909,0.506,1.22c0.312,0.31,0.741,0.498,1.212,0.498c0.48,0,0.91-0.188,1.22-0.498c0.311-0.311,0.498-0.741,0.498-1.22S38.443,44.215,38.133,43.898"/></svg>