<?xml version="1.0" encoding="utf-8"?><!DOCTYPE svg PUBLIC "-//W3C//DTD SVG 1.1//EN" "http://www.w3.org/Graphics/SVG/1.1/DTD/svg11.dtd"><svg version="1.1" id="Livello_1" xmlns="http://www.w3.org/2000/svg" xmlns:xlink="http://www.w3.org/1999/xlink" x="0px" y="0px" viewBox="0 0 500 500" enable-background="new 0 0 500 123" xml:space="preserve"><path fill="#FFFFFF" d="M370.863,302.734c0,76.515-60.165,129.953-146.314,129.953c-86.158,0-146.331-53.438-146.331-129.953v-60.191h292.646V302.734z"/><path d="M395.99,500H53.106C46.422,500,41,494.577,41,487.893c0-6.683,5.422-12.105,12.106-12.105H395.99c6.684,0,12.107,5.423,12.107,12.105C408.098,494.577,402.674,500,395.99,500z"/><path d="M450.988,291.688c0-30.48-23.158-55.644-52.809-58.841v-1.462c0-10.026-8.133-18.16-18.158-18.16H69.059c-10.026,0-18.16,8.134-18.16,18.16v74.648c0,91.711,73.032,158.279,173.649,158.279c83.321,0,147.721-45.655,167.395-113.438C424.518,350.791,450.988,324.274,450.988,291.688z M361.863,306.032c0,71.809-56.465,121.96-137.315,121.96c-80.859,0-137.331-50.151-137.331-121.96v-56.489h274.646V306.032z M396.953,326.282c0.807-6.598,1.227-13.351,1.227-20.25v-48.729c16.25,3.014,28.596,17.281,28.596,34.385C426.775,309.221,413.805,323.779,396.953,326.282z"/><path d="M162.676,196.784c-4.579,0-8.961-2.609-10.994-7.054c-0.875-1.915-21.257-47.55-0.087-96.172c22.384-51.42,4.611-72.393,3.846-73.26c-4.358-4.918-4.09-12.532,0.725-17c4.808-4.477,12.217-4.414,16.804,0.307c1.246,1.276,30.203,32.125,0.819,99.616c-16.748,38.479-0.244,76.098-0.071,76.476c2.735,6.085,0.04,13.25-6.037,16C166.058,196.437,164.355,196.784,162.676,196.784z"/><path d="M210.685,196.799c-3.563,0-7.094-1.568-9.482-4.571c-1.284-1.607-31.045-39.96-9.111-90.277c2.672-6.124,9.813-8.915,15.937-6.258c6.124,2.672,8.93,9.805,6.258,15.937c-16.181,37.123,5.644,65.252,5.864,65.528c4.161,5.233,3.294,12.854-1.939,17.008C215.981,195.94,213.324,196.799,210.685,196.799z"/></svg>
