<?xml version="1.0" encoding="utf-8"?><!DOCTYPE svg PUBLIC "-//W3C//DTD SVG 1.1//EN" "http://www.w3.org/Graphics/SVG/1.1/DTD/svg11.dtd"><svg version="1.1" id="Livello_1" xmlns="http://www.w3.org/2000/svg" xmlns:xlink="http://www.w3.org/1999/xlink" x="0px" y="0px" width="85px" height="107px" viewBox="0 0 85 107" enable-background="new 0 0 85 107" xml:space="preserve"><path fill="#1D1D1B" d="M60.325,33H49v-4.082C49,28.09,48.215,27,47.386,27H33.978C33.149,27,32,28.09,32,28.918V33H21.039C18.235,33,16,34.994,16,37.797v1.009C16,41.61,18.235,44,21.039,44h39.286C63.128,44,65,41.61,65,38.806v-1.009C65,34.994,63.128,33,60.325,33z M35,30h11v3H35V30z M61,38.806C61,39.123,60.642,39,60.325,39H21.039C20.722,39,20,39.123,20,38.806v-1.009C20,37.481,20.722,37,21.039,37h39.286C60.642,37,61,37.481,61,37.797V38.806z"/><path fill="#1D1D1B" d="M55.5,46.932c-1.242,0-2.5,1.008-2.5,2.25v22.213C53,73.279,51.592,75,49.706,75H48V49.182c0-1.242-1.258-2.25-2.5-2.25s-2.5,1.008-2.5,2.25V75h-5V49.182c0-1.242-1.257-2.25-2.5-2.25c-1.242,0-2.5,1.008-2.5,2.25V75h-1.343C29.772,75,28,73.279,28,71.395V49.182c0-1.242-0.757-2.25-2-2.25c-1.242,0-2,1.008-2,2.25v22.213C24,75.761,27.29,79,31.657,79h18.049C54.073,79,58,75.761,58,71.395V49.182C58,47.939,56.742,46.932,55.5,46.932z"/></svg>

