<?xml version="1.0" encoding="utf-8"?><!DOCTYPE svg PUBLIC "-//W3C//DTD SVG 1.1//EN" "http://www.w3.org/Graphics/SVG/1.1/DTD/svg11.dtd"><svg version="1.1" id="Livello_1" xmlns="http://www.w3.org/2000/svg" xmlns:xlink="http://www.w3.org/1999/xlink" x="0px" y="0px" viewBox="0 0 500 123" enable-background="new 0 0 500 123" xml:space="preserve"><rect id="icoo-area-1" fill="none" width="500" height="123"/><path  id="icoo-area-2"  fill="#9B007E" stroke="#FFFFFF" stroke-width="7" stroke-miterlimit="10" d="M484.265,72.55c-0.745-12.459-21.337-37.658-31.711-35.197c-15.295,3.629-18.688,33.136-18.688,33.136s-4.068-0.609-3.736,6.462c0,0,0.234,12.076,3.154,15.505c1.037,1.217,1.952,1.077,1.952,1.077c4.279,9.938,12.902,16.767,23.499,16.767c10.142,0,18.963-6.293,23.452-15.553c0,0,1.446,0.228,2.33-0.433c6.251-4.685,7.25-13.866,7.25-13.866C493.593,69.521,484.265,72.55,484.265,72.55z"/><path id="icoo-area-3" fill="#FFFFFF" d="M470.791,19.598c-2.723-0.812-4.815-0.036-6.796,0.085c0,0,0.327-2.533-1.144-5.139c-2.27-4.029-7.423-8.318-13.749-4.359c0,0-0.105,0.745,1.384,0.425c1.488-0.318,11.303,5.316,2.692,10.986c0,0-13.041-0.638-13.146,7.547c-0.105,8.186,0,0.141,0,0.141s-0.008,7.454,6.159,10.998c0,0,6.667-4.229,9.574-4.123c0,0,0.094-1.059,0.496-2.724c-0.344,1.772-0.496,2.989-0.496,2.989c2.994-0.838,6.906,1.273,8.406,1.977c2.253,11.209-1.192-1.362,4.917-8.315c4.866-5.538,7.37,23.529,7.37,23.529C480.995,47.662,484.114,23.567,470.791,19.598z"/><path id="icoo-area-4" fill="#FFFFFF" d="M403.58,60.303c-4.952-2.322-9.799-3.56-11.189-3.87c-6.813-2.011-6.838-4.024-6.838-5.107c0-0.62,2.312-2.941,7.883-2.941c1.548,0,3.553,0.465,4.946,1.393c1.547,0.928,3.246,1.393,4.949,1.393c3.094,0,5.878-1.548,7.581-4.178c0.93-1.548,1.393-3.096,1.393-4.798c0-3.095-1.548-6.036-4.334-7.737c-4.179-2.631-9.595-4.179-14.548-4.179c-14.856,0-26,8.976-26,21.047c0,13.773,10.987,19.809,20.119,22.441c0.153,0.153,0.463,0.153,0.62,0.153c5.261,1.239,11.914,4.489,12.689,6.346c0,1.547-0.466,2.939-1.703,4.179c-1.855,2.167-5.107,3.249-9.13,3.249c-2.94,0-6.81-1.082-8.513-4.022c-1.702-2.942-4.798-4.642-7.892-4.642c-1.549,0-3.096,0.463-4.488,1.236c-2.94,1.702-4.489,4.643-4.489,7.738c0,1.546,0.467,3.249,1.239,4.642c4.643,8.048,13.928,13.155,24.143,13.155c9.13,0,17.121-3.25,22.537-9.132C416.734,92.184,419,86.302,419,80.421V78.72C418,73.458,415.498,66.029,403.58,60.303z M17.923,33.683C12.971,33.683,9,37.862,9,42.814V96.98c0,4.952,3.971,8.975,8.923,8.975S27,101.933,27,96.98V42.814C27,37.862,22.875,33.683,17.923,33.683z M333.059,33.683c-17.333,0-31.57,16.094-31.57,36.059c0,9.595,2.63,18.106,7.738,24.605c5.569,6.964,13.774,10.988,23.213,11.454c0.619,0.153,1.549,0.153,2.785,0.153c4.333,0,12.072-0.773,19.5-5.726c2.632-1.703,4.179-4.799,4.179-7.738c0-1.703-0.463-3.403-1.547-4.796c-1.703-2.633-4.642-4.025-7.584-4.025c-1.703,0-3.403,0.541-4.952,1.469C340.95,87.924,336.617,88,334.296,88h-0.928c-7.892,0-11.297-6-12.844-11h35.129c4.953,0,8.977-4.017,8.977-8.969c0-9.285-3.097-17.868-8.977-24.214C349.772,37.163,341.725,33.683,333.059,33.683z M322.225,59c2.476-4,6.502-7.582,10.834-7.582c5.106,0,9.285,3.582,11.608,7.582H322.225z M65.755,51.79c2.167,0,4.179,0.464,6.19,1.394c1.238,0.62,2.631,0.929,3.869,0.929c3.405,0,6.5-2.012,8.048-5.262c0.619-1.239,0.928-2.477,0.928-3.87c0-3.404-1.856-6.654-5.107-8.047c-4.488-2.166-9.13-3.25-13.929-3.25c-18.726,0-33.892,16.25-33.892,36.213c0,19.809,15.167,36.059,33.892,36.059c4.798,0,9.44-1.084,13.929-3.096c3.25-1.548,5.107-4.797,5.107-8.202c0-1.394-0.31-2.629-0.928-3.869c-1.548-3.25-4.798-5.106-8.203-5.106c-1.238,0-2.477,0.153-3.714,0.774c-2.012,0.929-4.023,1.393-6.19,1.393c-8.667,0-15.785-8.048-15.785-17.953C49.971,59.838,57.089,51.79,65.755,51.79z M287.922,33.683c-4.952,0-8.922,4.179-8.922,9.131V96.98c0,4.952,3.97,8.975,8.922,8.975S297,101.933,297,96.98V42.814C297,37.862,292.874,33.683,287.922,33.683z M178.36,50.45c-8.382,0-15.925,3.811-20.993,9.798c-4.122-15.465-18.248-26.899-34.993-26.899c-19.81,0-36.059,16.25-36.059,36.213c0,19.808,16.25,36.059,36.059,36.059c12.856,0,24.163-6.744,30.591-16.832c4.195,9.896,14.028,16.897,25.395,16.897c15.259,0,27.678-12.418,27.678-27.558C206.038,62.868,193.619,50.45,178.36,50.45z M122.374,87.514c-9.905,0-17.953-8.048-17.953-17.953c0-10.058,8.048-18.106,17.953-18.106c10.06,0,18.106,8.048,18.106,18.106C140.48,79.466,132.434,87.514,122.374,87.514zM178.36,91.849c-7.569,0-13.72-6.152-13.72-13.721c0-7.69,6.151-13.839,13.72-13.839c7.689,0,13.839,6.149,13.839,13.839C192.199,85.696,186.049,91.849,178.36,91.849z M264.002,33.683c-4.954,0-9.002,4.024-9.002,9.131v29.094l-29.322-34.975c-1.703-2.013-4.216-3.25-6.846-3.25c-1.086,0-2.019,0.155-3.102,0.619c-3.56,1.238-5.73,4.643-5.73,8.512V96.98c0,4.952,3.971,8.975,8.922,8.975c5.108,0,9.078-4.022,9.078-8.975V67.729l28.979,34.977c1.703,2.012,4.121,3.249,6.751,3.249c1.084,0,2.238-0.153,3.322-0.619c3.559-1.237,5.947-4.644,5.947-8.355V42.814C273,37.707,268.954,33.683,264.002,33.683z"/></svg>
