<?xml version="1.0" encoding="utf-8"?><!DOCTYPE svg PUBLIC "-//W3C//DTD SVG 1.1//EN" "http://www.w3.org/Graphics/SVG/1.1/DTD/svg11.dtd"><svg version="1.1" id="Livello_1" xmlns="http://www.w3.org/2000/svg" xmlns:xlink="http://www.w3.org/1999/xlink" x="0px" y="0px" viewBox="0 0 500 500" enable-background="new 0 0 500 500" xml:space="preserve"><rect fill="none" width="500" height="500"/><path fill="#FFDAD7" stroke="#E29696" stroke-width="4" stroke-miterlimit="10" d="M389.827,284.076c-3.795-63.232-108.308-191.128-160.956-178.637c-77.627,18.418-94.851,168.177-94.851,168.177s-20.649-3.087-18.963,32.804c0,0,1.187,61.293,16.015,78.688c5.266,6.181,9.903,5.469,9.903,5.469c21.728,50.446,65.483,85.104,119.263,85.104c51.486,0,96.248-31.945,119.039-78.937c0,0,7.334,1.147,11.818-2.205c31.745-23.776,36.804-70.368,36.804-70.368C437.167,268.704,389.827,284.076,389.827,284.076z"/><path fill="#D68080" d="M259.525,369.458c1.42,4.213-3.528,1.898-17.273,1.898c-13.74,0-13.619-6.393-13.619-10.834s-7.571-10.834,6.172-10.834C248.545,349.688,259.066,368.1,259.525,369.458z"/><path fill="#9B007E" d="M282.354,46.596c-8.8-2.62-15.636-0.311-22.062,0.225c0.126-2.439,0.051-9.279-3.903-16.289c-7.62-13.512-24.901-27.9-46.119-14.621c0,0-0.356,2.497,4.635,1.427c4.994-1.069,37.497,17.831,8.615,36.848c0,0-44.52-2.141-44.52,25.317v0.476c0,0,0.397,25,21.079,36.887c0,0,22.579-14.184,32.328-13.828c0,0,0.109-0.044,0.116-0.116c10.121-1.77,22.735,4.826,27.611,6.952c7.498,37.313-3.979-4.807,16.481-28.095c16.32-18.576,24.739,78.924,24.739,78.924C316.569,140.732,327.042,59.907,282.354,46.596z"/><path fill="#FFFFFF" d="M247.642,66.677c0,0,31.624-36.006,53.878-2.207C321.253,94.457,282.474,35.772,247.642,66.677z"/><path fill="#FFFFFF" d="M202.011,110.607c0,0-31.363-24.317-4.556-44.418C221.24,48.355,174.697,83.383,202.011,110.607z"/><path fill="#D68080" d="M158.289,269.453c0,0-0.783-17.456,19.801-15.111c20.58,2.344,31.262,9.903,31.262,9.903l19.281,48.979C228.633,313.224,178.872,238.45,158.289,269.453z"/><path fill="#D68080" d="M368.509,344.517c0,0-10.729-15.039-32.555-8.254c-21.818,6.785-26.955,15.401-26.955,15.401s-3.668,4.224-5.39,0l16.327-22.555c0,0,53.98-6.786,48.113,14.67"/><path fill="#9E6C6C" d="M242.724,408.298c0,0-20.919,5.294-11.408,36.043c9.507,30.743,21.98-5.667,42.155-6.254c27.408-0.792,22.592-2.913,17.117-7.686C287.156,427.403,266.498,407.345,242.724,408.298z"/><path fill="#BC9595" d="M313.748,193.464c2.399,4.819,2.604,9.593,0.453,10.666c-2.145,1.068-5.836-1.966-8.241-6.785c-2.398-4.817-2.598-9.592-0.453-10.665C307.658,185.611,311.35,188.649,313.748,193.464z"/><path fill="#BC9595" d="M332.564,196.581c1.413,2.841,1.903,5.473,1.081,5.879c-0.815,0.406-2.622-1.565-4.036-4.407c-1.414-2.838-1.903-5.471-1.087-5.879C329.338,191.769,331.149,193.741,332.564,196.581z"/><path fill="#BC9595" d="M353.066,215.339c1.485,2.979,1.376,6.048-0.249,6.857c-1.618,0.81-4.139-0.955-5.625-3.934c-1.48-2.979-1.372-6.05,0.254-6.857C349.065,210.597,351.586,212.357,353.066,215.339z"/><path fill="#FFFFFF" d="M236.632,411.38c0,0-2.924,10.9,0,13.281c2.928,2.374,10.058-0.954,14.335,0c4.28,0.948-1.298-7.185-2.374-13.281C247.324,404.207,236.632,411.38,236.632,411.38z"/><path opacity="0.2" d="M376.026,365.163c1.426,9.648-15.227,21.45-26.339,23.093c-16.078,2.37-30.356-4.121-31.891-14.495c-1.535-10.381,10.266-20.719,26.338-23.093C360.22,348.293,374.49,354.788,376.026,365.163z"/><path opacity="0.2" d="M205.488,325.967c1.755,20.278-7.825,37.662-21.393,38.834c-13.571,1.172-25.994-14.314-27.746-34.587c-1.752-20.271,7.827-37.66,21.398-38.833C191.316,290.209,203.735,305.695,205.488,325.967z"/><path fill="#008DD3" d="M203.685,316.42c1.752,20.277-7.825,37.662-21.396,38.834c-13.568,1.178-25.991-14.309-27.743-34.58c-1.752-20.277,7.825-37.668,21.396-38.84S201.929,296.148,203.685,316.42z"></path><path fill="#FFFFFF" d="M188.697,309.671c-2.786,10.266-10.794,17.021-17.891,15.1c-7.097-1.928-10.592-11.807-7.804-22.072c2.786-10.26,10.795-17.021,17.891-15.094C187.99,289.526,191.482,299.411,188.697,309.671z"/><path fill="#008DD3" d="M372.806,357.701c1.528,10.38-10.266,20.718-26.345,23.092c-16.078,2.37-30.356-4.12-31.891-14.495c-1.528-10.38,10.266-20.718,26.344-23.092C356.993,340.837,371.271,347.326,372.806,357.701z"/><path fill="#FFFFFF" d="M344.775,370.661c-1.564,5.771-7.903,9.069-14.169,7.372c-6.26-1.698-10.066-7.752-8.502-13.522c1.565-5.771,5.016-4.211,11.275-2.508C339.646,363.701,346.347,364.892,344.775,370.661z"/></svg>
