<?xml version="1.0" encoding="utf-8"?><!DOCTYPE svg PUBLIC "-//W3C//DTD SVG 1.1//EN" "http://www.w3.org/Graphics/SVG/1.1/DTD/svg11.dtd"><svg version="1.1" id="Livello_1" xmlns="http://www.w3.org/2000/svg" xmlns:xlink="http://www.w3.org/1999/xlink" x="0px" y="0px"viewBox="0 0 116.75 125.037" style="enable-background:new 0 0 116.75 125.037;" xml:space="preserve"><path style="fill:#231F20;" d="M44.842,59.971c0-0.934,0.77-1.685,1.746-1.685c0.932,0,1.684,0.751,1.684,1.685c0,1.017,0.224,1.99,0.59,2.864v0.06c0.385,0.895,0.934,1.727,1.625,2.398c0.67,0.627,0.67,1.766,0,2.415c-0.652,0.647-1.77,0.647-2.436,0c-0.975-0.996-1.787-2.152-2.334-3.492l-0.023-0.04C45.166,62.854,44.842,61.436,44.842,59.971"/><path style="fill:#231F20;" d="M78.825,100.229L78.825,100.229c15.471,1.99,13.398,24.809-1.582,24.809H34.631c-16.343,0-16.039-24.848-0.08-24.891c-0.305-0.566-0.631-1.096-0.914-1.602c-4.506-8.771-0.813-20.95,9.66-22.942c2.885-0.526,6.053-0.181,9.055,1.281l0.123,0.081c1.461,0.73,2.844,1.703,4.142,2.984c1.137,1.075,1.177,2.883,0.082,3.998c-0.772,0.793-1.828,1.015-2.763,0.793c-1.502-0.304-2.557,0.14-3.084,0.874l-0.125,0.08c-0.199,0.365-0.321,0.689-0.321,1.034c0,0.307,0.081,0.551,0.221,0.752c0.609,0.63,2.052,0.893,4.692,0.346c1.502-0.304,3.086-0.955,4.649-1.543c2.9-1.097,5.825-2.172,9.295-2.172c8.162,0,12.812,8.1,9.969,15.182C79.109,99.58,78.968,99.924,78.825,100.229"/><path style="fill:#FFFFFF;" d="M77.243,105.852L77.243,105.852H34.631c-8.77,0-8.791,13.441,0,13.441h42.612C85.81,119.293,86.214,105.852,77.243,105.852"/><path style="fill:#FFFFFF;" d="M45.492,100.146L45.492,100.146h0.119h23.651c6.74,0,6.721-10.352,0-10.352c-2.475,0-4.892,0.914-7.285,1.849c-1.707,0.627-3.473,1.317-5.442,1.765c-4.934,1.078-8.244-0.039-10.07-2.028c-1.257-1.341-1.826-3.069-1.785-4.753c0.041-1.502,0.547-3.044,1.461-4.323l0.164-0.264c0.242-0.284,0.506-0.587,0.851-0.854c-0.974-0.162-1.907-0.119-2.804,0.043C34.184,83.177,35.786,99.966,45.492,100.146"/><path style="fill:#231F20;" d="M53.936,84.74L53.936,84.74c-0.484-0.101-0.932-0.366-1.299-0.711L53.936,84.74z"/><path style="fill:#231F20;" d="M54.709,52.237L54.709,52.237c0.69-0.669,1.745-0.669,2.437,0c0.647,0.693,0.647,1.765,0,2.417c-1.384,1.359-2.194,3.248-2.194,5.317c0,1.017,0.184,1.99,0.527,2.864c0.408,0.913,0.953,1.787,1.667,2.458l0.08,0.078c0.976,0.975,1.746,2.173,2.274,3.454c0.526,1.297,0.832,2.718,0.832,4.18c0,0.954-0.751,1.726-1.687,1.726c-0.975,0-1.745-0.772-1.745-1.726c0-0.994-0.202-1.969-0.568-2.883c-0.363-0.852-0.893-1.642-1.543-2.355l-0.08-0.059c-1.016-0.996-1.828-2.233-2.357-3.532c-0.566-1.322-0.852-2.74-0.852-4.205C51.5,56.968,52.719,54.206,54.709,52.237"/><path style="fill:#231F20;" d="M61.347,67.685L61.347,67.685c-0.668-0.626-0.668-1.765,0.021-2.392c0.649-0.671,1.747-0.671,2.417,0c0.995,0.993,1.807,2.211,2.374,3.532c0.505,1.297,0.812,2.718,0.812,4.18c0,1.462-0.307,2.902-0.812,4.161l-0.04,0.082c-0.527,1.321-1.361,2.518-2.334,3.493c-0.67,0.649-1.768,0.649-2.438,0c-0.668-0.691-0.668-1.747,0-2.394c0.709-0.734,1.237-1.504,1.604-2.419l0.041-0.021c0.346-0.911,0.566-1.866,0.566-2.902c0-0.994-0.221-1.969-0.566-2.862v-0.021C62.625,69.228,62.056,68.398,61.347,67.685"/><path style="fill:#0C0C0C;stroke:#020202;stroke-miterlimit:10;" d="M79.203,58.663l-0.279-0.283c-0.456-0.459-1.503-0.16-2.338,0.668l-0.516,0.51c-0.439,0.435-0.787,1.234-0.955,1.727c-0.113-0.02-0.228,0.215-0.346,0.215H74.73c-0.312,0-0.602-0.172-0.863-0.044c-0.139-0.491-0.448-1.181-0.842-1.659l-0.46-0.622c-0.749-0.908-1.685-1.406-2.185-0.995l-0.307,0.237c-0.499,0.411-0.297,1.474,0.452,2.382l0.461,0.556c0.515,0.625,0.988,1.108,1.556,1.22c-0.027,0.131-0.293,0.265-0.293,0.405v1.039c0,1.094,1.387,2.48,2.48,2.48h0.039c1.094,0,1.48-1.387,1.48-2.48V62.98c0-0.224,0.205-0.435,0.137-0.636c0.434-0.196,1.024-0.523,1.416-0.91l0.577-0.509C79.216,60.097,79.658,59.124,79.203,58.663z"/><path style="fill:#0C0C0C;stroke:#020202;stroke-miterlimit:10;" d="M37.203,54.663l-0.279-0.283c-0.456-0.459-1.503-0.16-2.338,0.668l-0.516,0.51c-0.439,0.435-0.787,1.234-0.955,1.727c-0.113-0.02-0.228,0.215-0.346,0.215H32.73c-0.312,0-0.602-0.172-0.863-0.044c-0.139-0.491-0.448-1.181-0.842-1.659l-0.46-0.622c-0.749-0.908-1.685-1.406-2.185-0.995l-0.307,0.237c-0.499,0.411-0.297,1.474,0.452,2.382l0.461,0.556c0.515,0.625,0.988,1.108,1.556,1.22c-0.027,0.131-0.293,0.265-0.293,0.405v1.039c0,1.094,1.387,2.48,2.48,2.48h0.039c1.094,0,1.48-1.387,1.48-2.48V58.98c0-0.224,0.205-0.435,0.137-0.636c0.434-0.196,1.024-0.523,1.416-0.91l0.577-0.509C37.216,56.097,37.658,55.124,37.203,54.663z"/></svg>
